<?xml version="1.0" encoding="UTF-8"?>
<svg width="46px" height="45px" viewBox="0 0 46 45" version="1.1" xmlns="http://www.w3.org/2000/svg" xmlns:xlink="http://www.w3.org/1999/xlink">
    <!-- Generator: Sketch 51.2 (57519) - http://www.bohemiancoding.com/sketch -->
    <title>MediaPlayer_off</title>
    <desc>Created with Sketch.</desc>
    <defs></defs>
    <g id="MediaPlayer_off" stroke="none" stroke-width="1" fill="none" fill-rule="evenodd">
        <polyline id="Line-6" stroke="#91E3AB" stroke-width="2" stroke-linecap="round" fill-rule="nonzero" points="16 36 16 16.4664722 16 9.5658534 19.5 8.51106996"></polyline>
        <polyline id="Line-6" stroke="#91E3AB" stroke-width="2" stroke-linecap="round" fill-rule="nonzero" points="45 32 45 8.44429773 45 2 24.8543817 7.13010309"></polyline>
        <path d="M16.5,15.5 L44.5,8.5" id="Line-7" stroke="#91E3AB" stroke-width="2" stroke-linecap="square" fill-rule="nonzero"></path>
        <path d="M8.5,43.9246908 C12.6421356,43.3831194 16,40.0676569 16,36.5193982 C16,32.9711394 12.6421356,30.5337378 8.5,31.0753092 C4.35786438,31.6168806 1,34.9323431 1,38.4806018 C1,42.0288606 4.35786438,44.4662622 8.5,43.9246908 Z" id="Oval-4" stroke="#91E3AB" stroke-width="2" fill-rule="nonzero"></path>
        <path d="M37.5,39.9246908 C41.6421356,39.3831194 45,36.0676569 45,32.5193982 C45,28.9711394 41.6421356,26.5337378 37.5,27.0753092 C33.3578644,27.6168806 30,30.9323431 30,34.4806018 C30,38.0288606 33.3578644,40.4662622 37.5,39.9246908 Z" id="Oval-4" stroke="#91E3AB" stroke-width="2" fill-rule="nonzero"></path>
    </g>
</svg>